<?xml version="1.0" encoding="utf-8"?>
<!-- Generated by Mocodo 4.2.11 -->
<svg width="486" height="432" viewBox="0 0 486 432" xmlns="http://www.w3.org/2000/svg">
<rect x="0" y="0" width="486" height="432" fill="#ffffbf" stroke="none" stroke-width="0"/>

<!-- Association POSSEDER -->
<g>
	<line x1="183" y1="152" x2="183" y2="51" stroke="#f46d43" stroke-width="2"/>
	<line x1="312" y1="51" x2="183" y2="51" stroke="#f46d43" stroke-width="2"/>
	<g>
		<path d="M210 26 a14 14 90 0 1 14 14 V51 h-82 V40 a14 14 90 0 1 14 -14" fill="#fdae61" stroke="#fdae61" stroke-width="0"/>
		<path d="M224 51 v11 a14 14 90 0 1 -14 14 H156 a14 14 90 0 1 -14 -14 V51 H82" fill="#fee090" stroke="#fee090" stroke-width="0"/>
		<rect x="142" y="26" width="82" height="50" fill="none" rx="14" stroke="#f46d43" stroke-width="2"/>
		<line x1="142" y1="51" x2="224" y2="51" stroke="#f46d43" stroke-width="1"/>
		<text x="150" y="43.75" fill="#000000" font-family="Verdana" font-size="12">POSSEDER</text>
	</g>
	<text x="188" y="93" fill="#4575b4" font-family="Verdana" font-size="12">1,1</text>
	<text x="234" y="68" fill="#4575b4" font-family="Verdana" font-size="12">1,N</text>
</g>

<!-- Association DONNER -->
<g>
	<line x1="312" y1="51" x2="429" y2="51" stroke="#f46d43" stroke-width="2"/>
	<line x1="429" y1="152" x2="429" y2="51" stroke="#f46d43" stroke-width="2"/>
	<g>
		<path d="M449 26 a14 14 90 0 1 14 14 V51 h-68 V40 a14 14 90 0 1 14 -14" fill="#fdae61" stroke="#fdae61" stroke-width="0"/>
		<path d="M463 51 v11 a14 14 90 0 1 -14 14 H409 a14 14 90 0 1 -14 -14 V51 H68" fill="#fee090" stroke="#fee090" stroke-width="0"/>
		<rect x="395" y="26" width="68" height="50" fill="none" rx="14" stroke="#f46d43" stroke-width="2"/>
		<line x1="395" y1="51" x2="463" y2="51" stroke="#f46d43" stroke-width="1"/>
		<text x="402" y="43.75" fill="#000000" font-family="Verdana" font-size="12">DONNER</text>
	</g>
	<text x="368" y="68" fill="#4575b4" font-family="Verdana" font-size="12">1,1</text>
	<text x="434" y="110" fill="#4575b4" font-family="Verdana" font-size="12">0,N</text>
</g>

<!-- Association ETRE -->
<g>
	<line x1="183" y1="152" x2="56" y2="152" stroke="#f46d43" stroke-width="2"/>
	<line x1="56" y1="262" x2="56" y2="152" stroke="#f46d43" stroke-width="2"/>
	<line x1="56" y1="51" x2="56" y2="152" stroke="#f46d43" stroke-width="2"/>
	<g>
		<path d="M65 127 a14 14 90 0 1 14 14 V152 h-46 V141 a14 14 90 0 1 14 -14" fill="#fdae61" stroke="#fdae61" stroke-width="0"/>
		<path d="M79 152 v11 a14 14 90 0 1 -14 14 H47 a14 14 90 0 1 -14 -14 V152 H46" fill="#fee090" stroke="#fee090" stroke-width="0"/>
		<rect x="33" y="127" width="46" height="50" fill="none" rx="14" stroke="#f46d43" stroke-width="2"/>
		<line x1="33" y1="152" x2="79" y2="152" stroke="#f46d43" stroke-width="1"/>
		<text x="40" y="144.75" fill="#000000" font-family="Verdana" font-size="12">ETRE</text>
	</g>
	<text x="114" y="169" fill="#4575b4" font-family="Verdana" font-size="12">1,1</text>
	<text x="61" y="220" fill="#4575b4" font-family="Verdana" font-size="12">0,N</text>
	<text x="61" y="102" fill="#4575b4" font-family="Verdana" font-size="12">0,N</text>
</g>

<!-- Association AVOIR -->
<g>
	<line x1="312" y1="262" x2="312" y2="152" stroke="#f46d43" stroke-width="2"/>
	<line x1="312" y1="51" x2="312" y2="152" stroke="#f46d43" stroke-width="2"/>
	<g>
		<path d="M325 127 a14 14 90 0 1 14 14 V152 h-54 V141 a14 14 90 0 1 14 -14" fill="#fdae61" stroke="#fdae61" stroke-width="0"/>
		<path d="M339 152 v11 a14 14 90 0 1 -14 14 H299 a14 14 90 0 1 -14 -14 V152 H54" fill="#fee090" stroke="#fee090" stroke-width="0"/>
		<rect x="285" y="127" width="54" height="50" fill="none" rx="14" stroke="#f46d43" stroke-width="2"/>
		<line x1="285" y1="152" x2="339" y2="152" stroke="#f46d43" stroke-width="1"/>
		<text x="292" y="144.75" fill="#000000" font-family="Verdana" font-size="12">AVOIR</text>
	</g>
	<text x="317" y="203" fill="#4575b4" font-family="Verdana" font-size="12">1,N</text>
	<text x="317" y="110" fill="#4575b4" font-family="Verdana" font-size="12">1,N</text>
</g>

<!-- Association SE_TROUVER -->
<g>
	<line x1="183" y1="152" x2="183" y2="262" stroke="#f46d43" stroke-width="2"/>
	<line x1="183" y1="372" x2="183" y2="262" stroke="#f46d43" stroke-width="2"/>
	<g>
		<path d="M218 237 a14 14 90 0 1 14 14 V262 h-98 V251 a14 14 90 0 1 14 -14" fill="#fdae61" stroke="#fdae61" stroke-width="0"/>
		<path d="M232 262 v11 a14 14 90 0 1 -14 14 H148 a14 14 90 0 1 -14 -14 V262 H98" fill="#fee090" stroke="#fee090" stroke-width="0"/>
		<rect x="134" y="237" width="98" height="50" fill="none" rx="14" stroke="#f46d43" stroke-width="2"/>
		<line x1="134" y1="262" x2="232" y2="262" stroke="#f46d43" stroke-width="1"/>
		<text x="142" y="254.75" fill="#000000" font-family="Verdana" font-size="12">SE_TROUVER</text>
	</g>
	<text x="188" y="220" fill="#4575b4" font-family="Verdana" font-size="12">1,1</text>
	<text x="188" y="322" fill="#4575b4" font-family="Verdana" font-size="12">0,N</text>
</g>

<!-- Entity TYPEBIEN -->
<g>
	<g>
		<rect x="20" y="17" width="72" height="25" fill="#abd9e9" stroke="none" stroke-width="0" opacity="1"/>
		<rect x="20" y="42" width="72" height="43" fill="#e0f3f8" stroke="none" stroke-width="0" opacity="1"/>
		<rect x="20" y="17" width="72" height="68" fill="none" stroke="#74add1" stroke-width="2" opacity="1"/>
		<line x1="20" y1="42" x2="92" y2="42" stroke="#74add1" stroke-width="1"/>
	</g>
	<text x="26" y="34.75" fill="#000000" font-family="Verdana" font-size="12">TYPEBIEN</text>
	<text x="25" y="59.8" fill="#000000" font-family="Verdana" font-size="12">IDTYPE</text>
	<line x1="25" y1="62" x2="70" y2="62" stroke="#000000" stroke-width="1"/>
	<text x="25" y="76.8" fill="#000000" font-family="Verdana" font-size="12">NOMTYPE</text>
</g>

<!-- Entity PROPRIETAIRE -->
<g>
	<g>
		<rect x="261" y="9" width="102" height="25" fill="#abd9e9" stroke="none" stroke-width="0" opacity="1"/>
		<rect x="261" y="34" width="102" height="59" fill="#e0f3f8" stroke="none" stroke-width="0" opacity="1"/>
		<rect x="261" y="9" width="102" height="84" fill="none" stroke="#74add1" stroke-width="2" opacity="1"/>
		<line x1="261" y1="34" x2="363" y2="34" stroke="#74add1" stroke-width="1"/>
	</g>
	<text x="267" y="26.75" fill="#000000" font-family="Verdana" font-size="12">PROPRIETAIRE</text>
	<text x="266" y="51.8" fill="#000000" font-family="Verdana" font-size="12">IDPROPRIO</text>
	<line x1="266" y1="54" x2="336" y2="54" stroke="#000000" stroke-width="1"/>
	<text x="266" y="68.8" fill="#000000" font-family="Verdana" font-size="12">NOMPROPRIO</text>
	<text x="266" y="85.8" fill="#000000" font-family="Verdana" font-size="12">PRENOM</text>
</g>

<!-- Entity BIEN -->
<g>
	<g>
		<rect x="140" y="101" width="86" height="25" fill="#abd9e9" stroke="none" stroke-width="0" opacity="1"/>
		<rect x="140" y="126" width="86" height="77" fill="#e0f3f8" stroke="none" stroke-width="0" opacity="1"/>
		<rect x="140" y="101" width="86" height="102" fill="none" stroke="#74add1" stroke-width="2" opacity="1"/>
		<line x1="140" y1="126" x2="226" y2="126" stroke="#74add1" stroke-width="1"/>
	</g>
	<text x="168" y="118.75" fill="#000000" font-family="Verdana" font-size="12">BIEN</text>
	<text x="145" y="143.8" fill="#000000" font-family="Verdana" font-size="12">IDBIEN</text>
	<line x1="145" y1="146" x2="190" y2="146" stroke="#000000" stroke-width="1"/>
	<text x="145" y="160.8" fill="#000000" font-family="Verdana" font-size="12">NOMB</text>
	<text x="145" y="177.8" fill="#000000" font-family="Verdana" font-size="12">DATEACHAT</text>
	<text x="145" y="194.8" fill="#000000" font-family="Verdana" font-size="12">PRIX</text>
</g>

<!-- Entity AVIS -->
<g>
	<g>
		<rect x="381" y="118" width="96" height="25" fill="#abd9e9" stroke="none" stroke-width="0" opacity="1"/>
		<rect x="381" y="143" width="96" height="43" fill="#e0f3f8" stroke="none" stroke-width="0" opacity="1"/>
		<rect x="381" y="118" width="96" height="68" fill="none" stroke="#74add1" stroke-width="2" opacity="1"/>
		<line x1="381" y1="143" x2="477" y2="143" stroke="#74add1" stroke-width="1"/>
	</g>
	<text x="414" y="135.75" fill="#000000" font-family="Verdana" font-size="12">AVIS</text>
	<text x="386" y="160.8" fill="#000000" font-family="Verdana" font-size="12">IDAVIS</text>
	<line x1="386" y1="163" x2="431" y2="163" stroke="#000000" stroke-width="1"/>
	<text x="386" y="177.8" fill="#000000" font-family="Verdana" font-size="12">DESCRIPTION</text>
</g>

<!-- Entity CATEGORIE -->
<g>
	<g>
		<rect x="15" y="228" width="82" height="25" fill="#abd9e9" stroke="none" stroke-width="0" opacity="1"/>
		<rect x="15" y="253" width="82" height="43" fill="#e0f3f8" stroke="none" stroke-width="0" opacity="1"/>
		<rect x="15" y="228" width="82" height="68" fill="none" stroke="#74add1" stroke-width="2" opacity="1"/>
		<line x1="15" y1="253" x2="97" y2="253" stroke="#74add1" stroke-width="1"/>
	</g>
	<text x="20" y="245.75" fill="#000000" font-family="Verdana" font-size="12">CATEGORIE</text>
	<text x="20" y="270.8" fill="#000000" font-family="Verdana" font-size="12">IDCAT</text>
	<line x1="20" y1="273" x2="59" y2="273" stroke="#000000" stroke-width="1"/>
	<text x="20" y="287.8" fill="#000000" font-family="Verdana" font-size="12">NOMCAT</text>
</g>

<!-- Entity LOGEMENT -->
<g>
	<g>
		<rect x="264" y="211" width="96" height="25" fill="#abd9e9" stroke="none" stroke-width="0" opacity="1"/>
		<rect x="264" y="236" width="96" height="77" fill="#e0f3f8" stroke="none" stroke-width="0" opacity="1"/>
		<rect x="264" y="211" width="96" height="102" fill="none" stroke="#74add1" stroke-width="2" opacity="1"/>
		<line x1="264" y1="236" x2="360" y2="236" stroke="#74add1" stroke-width="1"/>
	</g>
	<text x="278" y="228.75" fill="#000000" font-family="Verdana" font-size="12">LOGEMENT</text>
	<text x="269" y="253.8" fill="#000000" font-family="Verdana" font-size="12">IDLOGEMENT</text>
	<line x1="269" y1="256" x2="352" y2="256" stroke="#000000" stroke-width="1"/>
	<text x="269" y="270.8" fill="#000000" font-family="Verdana" font-size="12">TYPEL</text>
	<text x="269" y="287.8" fill="#000000" font-family="Verdana" font-size="12">ADRESSE</text>
	<text x="269" y="304.8" fill="#000000" font-family="Verdana" font-size="12">DESCRIPTION</text>
</g>

<!-- Entity JUSTIFICATIF -->
<g>
	<g>
		<rect x="9" y="321" width="94" height="25" fill="#abd9e9" stroke="none" stroke-width="0" opacity="1"/>
		<rect x="9" y="346" width="94" height="77" fill="#e0f3f8" stroke="none" stroke-width="0" opacity="1"/>
		<rect x="9" y="321" width="94" height="102" fill="none" stroke="#74add1" stroke-width="2" opacity="1"/>
		<line x1="9" y1="346" x2="103" y2="346" stroke="#74add1" stroke-width="1"/>
	</g>
	<text x="14" y="338.75" fill="#000000" font-family="Verdana" font-size="12">JUSTIFICATIF</text>
	<text x="14" y="363.8" fill="#000000" font-family="Verdana" font-size="12">IDJUSTIF</text>
	<line x1="14" y1="366" x2="71" y2="366" stroke="#000000" stroke-width="1"/>
	<text x="14" y="380.8" fill="#000000" font-family="Verdana" font-size="12">NOMJUSTIF</text>
	<text x="14" y="397.8" fill="#000000" font-family="Verdana" font-size="12">DATEAJOUT</text>
	<text x="14" y="414.8" fill="#000000" font-family="Verdana" font-size="12">URL</text>
</g>

<!-- Entity PIECE -->
<g>
	<g>
		<rect x="135" y="330" width="96" height="25" fill="#abd9e9" stroke="none" stroke-width="0" opacity="1"/>
		<rect x="135" y="355" width="96" height="59" fill="#e0f3f8" stroke="none" stroke-width="0" opacity="1"/>
		<rect x="135" y="330" width="96" height="84" fill="none" stroke="#74add1" stroke-width="2" opacity="1"/>
		<line x1="135" y1="355" x2="231" y2="355" stroke="#74add1" stroke-width="1"/>
	</g>
	<text x="165" y="347.75" fill="#000000" font-family="Verdana" font-size="12">PIECE</text>
	<text x="140" y="372.8" fill="#000000" font-family="Verdana" font-size="12">IDPIECE</text>
	<line x1="140" y1="375" x2="191" y2="375" stroke="#000000" stroke-width="1"/>
	<text x="140" y="389.8" fill="#000000" font-family="Verdana" font-size="12">NOMPIECE</text>
	<text x="140" y="406.8" fill="#000000" font-family="Verdana" font-size="12">DESCRIPTION</text>
</g>
</svg>